<?xml version="1.0" encoding="UTF-8"?>
<svg id="Layer_1" data-name="Layer 1" xmlns="http://www.w3.org/2000/svg" viewBox="0 0 493.54 410.25">
  <defs>
    <style>
      .cls-1, .cls-2 {
        stroke-width: 0px;
      }

      .cls-2 {
        fill-rule: evenodd;
      }
    </style>
  </defs>
  <g id="Layer_3">
    <path class="cls-2" d="M246.77,35.75l-162.32,42.67-.08,1.92c-.51,12.08-.82,24.16-.89,36.25h-34.57c.12-20.07.86-40.14,2.09-60.17l.31-5.05L246.77,0l195.47,51.38.31,5.05c1.23,20.03,1.98,40.1,2.09,60.17h-34.57c-.07-12.09-.38-24.18-.89-36.25l-.08-1.92-162.32-42.67ZM.43,308.64h99.42c4.62,5.52,9.51,10.83,14.61,15.94,18.02,18.02,38.57,33.47,60.08,47.07,19.98,12.63,40.9,23.73,62.24,33.87l9.99,4.75,9.99-4.75c21.34-10.14,42.26-21.24,62.24-33.87,21.51-13.6,42.06-29.05,60.08-47.07,5.1-5.1,9.99-10.41,14.61-15.94h99.56v-6.27h-140.89c-15.67,15.25-33.38,28.38-51.84,40.05-14.73,9.31-30.02,17.73-45.6,25.52l-8.16,4.08-8.16-4.08c-15.58-7.8-30.87-16.21-45.6-25.52-18.46-11.67-36.17-24.8-51.84-40.05H.43v6.27h0ZM.43,145.35h127.1l-2.87-6.27H.43v6.27h0ZM366.03,145.35h127.22v-6.27h-124.35l-2.87,6.27Z"/>
  </g>
  <g id="Layer_4">
    <path class="cls-1" d="M20.94,268.76h6.43c.05,1.03.07,1.69.07,1.99,0,1.63-.24,2.9-.73,3.81-.53,1.03-1.58,1.73-3.14,2.1-1.56.37-4.25.55-8.08.55-4.02,0-6.89-.08-8.59-.23-1.71-.15-2.99-.45-3.86-.9-.77-.4-1.35-.95-1.73-1.62-.38-.68-.63-1.62-.74-2.8-.09-.96-.14-2.69-.14-5.19s.05-4.21.14-5.29c.1-1.08.27-1.92.54-2.52.59-1.34,1.78-2.21,3.57-2.6,1.79-.4,5.42-.6,10.87-.6,2.72,0,4.7.06,5.94.18,1.24.13,2.23.36,2.96.7.96.45,1.63,1.12,2.03,2.02.39.89.59,2.21.59,3.94,0,.09-.01.44-.03,1.05h-6.43c-.03-.7-.08-1.16-.13-1.4-.06-.24-.17-.43-.35-.59-.25-.21-.88-.37-1.87-.46-1-.1-2.52-.15-4.55-.15s-3.4.04-4.18.13c-.77.08-1.32.26-1.64.52-.39.31-.65.83-.8,1.56-.15.73-.23,1.89-.23,3.49s.07,2.72.2,3.38c.14.65.39,1.12.78,1.41.36.28.93.46,1.73.56.79.09,2.18.14,4.19.14,2.46,0,4.11-.04,4.93-.12.82-.08,1.37-.26,1.66-.54.38-.36.58-1.19.6-2.51h0ZM0,164.46h20.96v31.66c.1,7.28.36,11.87.76,13.8.53,2.7,2.29,4.47,5.23,5.32,2.94.84,8.9,1.26,17.86,1.26,7.28,0,12.32-.21,15.13-.64,2.82-.41,4.82-1.26,5.99-2.5.77-.88,1.32-1.94,1.65-3.18.31-1.26.57-3.39.72-6.42.17-3.11.26-5.66.26-7.64v-31.66h20.96v31.66c-.24,11-.58,18.19-1.07,21.6-.83,5.78-3.6,10.02-8.28,12.7-2.65,1.55-6.4,2.6-11.24,3.13-4.85.53-12.8.81-23.87.81-8.31,0-14.73-.15-19.24-.45-4.51-.31-8.41-.84-11.75-1.62-7.37-1.76-11.67-6.2-12.92-13.32-.46-2.72-.76-5.2-.88-7.42-.12-2.22-.21-7.37-.28-15.44v-31.66h0ZM98.83,164.46h36.76l36.07,51.42h2.17l-.52-51.42h21.34v68.87h-36.47l-36.21-51.42h-2.27l.46,51.42h-21.34v-68.87h0ZM204.25,164.46h21.99v68.87h-21.99v-68.87ZM231.06,164.46h83.32v17.55h-30.67v51.32h-21.99v-51.32h-30.67v-17.55h0ZM319.2,164.46h76.2v16.21h-55.55v9.91h52.76v15.07h-52.76v11.15h55.96v16.52h-76.61v-68.87h0ZM402.39,233.33v-68.87h49.65c8.79,0,14.56.07,17.28.21,2.72.14,5.56.5,8.52,1.1,6.88,1.41,11.37,5.32,13.46,11.7.77,2.43,1.29,5.03,1.57,7.8.26,2.79.4,6.97.4,12.6,0,6.16-.15,10.81-.48,13.97-.31,3.17-.91,6.04-1.79,8.62-2.05,6.06-6.26,9.79-12.65,11.2-2.99.67-6.18,1.12-9.57,1.34-3.39.22-8.95.33-16.68.33h-49.7ZM423.04,215.78h29.19c5.39,0,9.34-.17,11.87-.53,2.55-.34,4.34-.96,5.37-1.84,1.15-.96,1.96-2.51,2.43-4.63.46-2.12.71-5.32.71-9.59s-.21-7.47-.6-9.62c-.41-2.15-1.12-3.8-2.12-4.94-1.15-1.24-2.81-2.05-4.97-2.39-2.17-.36-6.45-.53-12.87-.53h-29v34.07h0ZM43.79,255.49c4.55,0,7.69.11,9.4.34,2.46.33,3.97,1.5,4.53,3.51.38,1.38.57,3.72.57,7s-.19,5.64-.57,7.02c-.56,2.01-2.07,3.18-4.53,3.51-1.71.23-4.82.34-9.34.34s-7.75-.11-9.46-.34c-2.46-.33-3.97-1.5-4.53-3.51-.38-1.38-.57-3.76-.57-7.15s.19-5.51.57-6.88c.56-2,2.07-3.18,4.53-3.51,1.7-.23,4.83-.34,9.4-.34h0ZM43.81,260.97c-3.41,0-5.47.09-6.16.26-.79.21-1.31.67-1.56,1.39-.25.72-.37,2.14-.37,4.28,0,1.29.07,2.23.2,2.8.26,1.08,1.03,1.69,2.34,1.85.96.12,2.82.19,5.58.19,2.59,0,4.31-.05,5.17-.14.86-.1,1.49-.3,1.9-.62.38-.29.62-.71.76-1.28.13-.56.2-1.48.2-2.77,0-1.52-.05-2.63-.15-3.35-.11-.71-.29-1.25-.56-1.61-.34-.45-.9-.74-1.68-.84-.79-.11-2.67-.16-5.66-.16h0ZM60.84,255.78h11.66l6.28,13.7,6.28-13.7h11.6v21.12h-6.34l.15-15.83h-1.05l-7.96,15.83h-5.34l-7.96-15.83h-1.13l.15,15.83h-6.34v-21.12h0ZM99.61,255.78h11.66l6.28,13.7,6.28-13.7h11.6v21.12h-6.34l.15-15.83h-1.05l-7.96,15.83h-5.34l-7.96-15.83h-1.13l.15,15.83h-6.34v-21.12h0ZM138.38,255.78h23.37v4.97h-17.04v3.04h16.18v4.62h-16.18v3.42h17.16v5.07h-23.5v-21.12h0ZM163.89,276.9v-21.12h15.55c3.65.01,5.83.05,6.55.12.72.07,1.41.31,2.08.72.8.49,1.36,1.16,1.65,2,.3.86.45,2.2.45,4.02,0,1.54-.1,2.67-.29,3.39-.19.72-.55,1.3-1.07,1.73-.56.46-1.41.79-2.55.96,1.35.11,2.32.49,2.9,1.16.34.4.55.89.65,1.46.09.57.14,1.77.14,3.59v1.96h-6.33v-1.12c0-1.17-.04-2.01-.13-2.51-.09-.5-.25-.88-.49-1.15-.24-.25-.56-.4-.99-.47-.42-.07-1.29-.1-2.62-.1h-9.07v5.35h-6.43ZM170.32,266.26h9.06c1.57-.03,2.51-.06,2.81-.08.3-.03.56-.11.78-.24.28-.17.48-.43.59-.78.11-.35.17-.87.17-1.57s-.06-1.2-.19-1.55c-.13-.34-.35-.59-.67-.74-.23-.11-.5-.16-.81-.18-.31-.02-1.21-.04-2.69-.05h-9.04v5.19h0ZM212.57,268.76h6.43c.05,1.03.07,1.69.07,1.99,0,1.63-.24,2.9-.73,3.81-.53,1.03-1.58,1.73-3.14,2.1-1.56.37-4.25.55-8.08.55-4.02,0-6.89-.08-8.59-.23-1.71-.15-2.99-.45-3.86-.9-.77-.4-1.35-.95-1.73-1.62-.38-.68-.63-1.62-.74-2.8-.09-.96-.14-2.69-.14-5.19s.05-4.21.14-5.29c.1-1.08.27-1.92.54-2.52.59-1.34,1.78-2.21,3.57-2.6s5.42-.6,10.87-.6c2.72,0,4.7.06,5.94.18,1.24.13,2.23.36,2.96.7.96.45,1.63,1.12,2.03,2.02.39.89.59,2.21.59,3.94,0,.09-.01.44-.03,1.05h-6.43c-.03-.7-.08-1.16-.13-1.4-.06-.24-.17-.43-.35-.59-.25-.21-.88-.37-1.87-.46-1-.1-2.52-.15-4.55-.15s-3.4.04-4.18.13c-.77.08-1.32.26-1.64.52-.39.31-.65.83-.8,1.56-.15.73-.23,1.89-.23,3.49s.07,2.72.2,3.38c.14.65.39,1.12.78,1.41.36.28.93.46,1.73.56.79.09,2.18.14,4.19.14,2.46,0,4.11-.04,4.93-.12.82-.08,1.37-.26,1.66-.54.38-.36.58-1.19.6-2.51h0ZM221.3,255.78h6.75v21.12h-6.75v-21.12ZM253.92,276.9l-1.81-3.58h-13.96l-1.81,3.58h-7.35l11.2-21.12h9.99l11.04,21.12h-7.3ZM249.85,268.7l-4.07-8.01h-1.28l-4.07,8.01h9.42ZM262.18,255.78h6.75v15.74h15.01v5.38h-21.76v-21.12ZM292.59,269.9h6.23c-.01,1.05.2,1.73.63,2.03.31.2.71.32,1.2.35s2.03.06,4.62.08c2.72-.01,4.35-.03,4.9-.05.54-.03.98-.11,1.29-.24.47-.2.71-.73.71-1.59,0-.63-.17-1.05-.5-1.26-.34-.21-1.02-.33-2.05-.35-.79,0-2.48-.06-5.04-.18-2.63-.13-4.34-.2-5.13-.22-1.55-.05-2.73-.2-3.56-.44-.83-.24-1.48-.64-1.94-1.18-.79-.91-1.19-2.43-1.19-4.55,0-2.39.45-4.07,1.36-5.05.69-.76,1.75-1.25,3.18-1.46,1.44-.21,4.34-.32,8.74-.32,3.1,0,5.28.09,6.54.26,1.94.27,3.27.81,3.99,1.61.72.81,1.08,2.18,1.08,4.1v.99h-6.23c-.02-.59-.07-.99-.15-1.21-.07-.22-.23-.39-.45-.53-.28-.16-.77-.27-1.47-.32-.7-.05-2.18-.07-4.45-.07-2.73,0-4.4.08-4.99.25-.6.17-.9.64-.9,1.42s.3,1.19.9,1.36c.5.13,2.77.26,6.81.39,3.41.1,5.69.22,6.84.36,1.15.14,2.06.4,2.74.8.77.46,1.32,1.1,1.64,1.91.32.81.48,1.97.48,3.49,0,1.99-.27,3.47-.8,4.44-.41.71-.96,1.25-1.68,1.59-.72.35-1.73.59-3.02.71-1.39.12-3.98.19-7.78.19-3.17,0-5.52-.08-7.04-.25-1.51-.16-2.66-.46-3.42-.88-.79-.46-1.34-1.06-1.65-1.8-.3-.74-.45-1.87-.45-3.39l.02-.99h0ZM320.66,255.78h23.37v4.97h-17.04v3.04h16.18v4.62h-16.18v3.42h17.16v5.07h-23.5v-21.12h0ZM346.17,276.9v-21.12h15.55c3.65.01,5.83.05,6.55.12.72.07,1.41.31,2.08.72.8.49,1.36,1.16,1.65,2,.3.86.45,2.2.45,4.02,0,1.54-.1,2.67-.29,3.39-.19.72-.55,1.3-1.07,1.73-.56.46-1.41.79-2.55.96,1.35.11,2.32.49,2.9,1.16.34.4.55.89.65,1.46.09.57.14,1.77.14,3.59v1.96h-6.33v-1.12c0-1.17-.04-2.01-.13-2.51-.09-.5-.25-.88-.49-1.15-.24-.25-.56-.4-.99-.47-.42-.07-1.29-.1-2.62-.1h-9.07v5.35h-6.43,0ZM352.6,266.26h9.06c1.57-.03,2.51-.06,2.81-.08s.56-.11.78-.24c.28-.17.47-.43.59-.78.11-.35.17-.87.17-1.57s-.06-1.2-.19-1.55c-.13-.34-.35-.59-.67-.74-.23-.11-.5-.16-.81-.18-.31-.02-1.21-.04-2.69-.05h-9.04v5.19h0ZM372.76,255.78h7.07l7.7,15.83h1.2l7.63-15.83h7.02l-10.3,21.12h-9.89l-10.43-21.12h0ZM404.45,255.78h6.75v21.12h-6.75v-21.12ZM434.23,268.76h6.43c.05,1.03.07,1.69.07,1.99,0,1.63-.24,2.9-.73,3.81-.53,1.03-1.58,1.73-3.14,2.1-1.56.37-4.25.55-8.08.55-4.02,0-6.89-.08-8.59-.23-1.71-.15-2.99-.45-3.86-.9-.77-.4-1.35-.95-1.73-1.62-.38-.68-.63-1.62-.74-2.8-.09-.96-.14-2.69-.14-5.19s.05-4.21.14-5.29c.1-1.08.27-1.92.54-2.52.59-1.34,1.78-2.21,3.57-2.6s5.42-.6,10.87-.6c2.72,0,4.7.06,5.94.18,1.24.13,2.23.36,2.96.7.96.45,1.63,1.12,2.03,2.02.39.89.59,2.21.59,3.94,0,.09-.01.44-.03,1.05h-6.43c-.03-.7-.08-1.16-.13-1.4-.06-.24-.17-.43-.35-.59-.25-.21-.88-.37-1.87-.46-1-.1-2.52-.15-4.55-.15s-3.4.04-4.18.13c-.77.08-1.32.26-1.64.52-.39.31-.65.83-.8,1.56-.15.73-.23,1.89-.23,3.49s.07,2.72.2,3.38c.14.65.39,1.12.78,1.41.36.28.93.46,1.73.56.79.09,2.18.14,4.19.14,2.46,0,4.11-.04,4.93-.12.82-.08,1.37-.26,1.66-.54.38-.36.58-1.19.6-2.51h0ZM442.95,255.78h23.37v4.97h-17.04v3.04h16.18v4.62h-16.18v3.42h17.16v5.07h-23.5v-21.12h0ZM467.72,269.9h6.23c-.01,1.05.2,1.73.63,2.03.31.2.71.32,1.2.35s2.03.06,4.62.08c2.72-.01,4.35-.03,4.9-.05.54-.03.98-.11,1.29-.24.47-.2.71-.73.71-1.59,0-.63-.17-1.05-.5-1.26-.34-.21-1.02-.33-2.05-.35-.79,0-2.48-.06-5.04-.18-2.63-.13-4.34-.2-5.13-.22-1.55-.05-2.73-.2-3.56-.44s-1.48-.64-1.94-1.18c-.79-.91-1.19-2.43-1.19-4.55,0-2.39.45-4.07,1.36-5.05.69-.76,1.75-1.25,3.18-1.46,1.44-.21,4.34-.32,8.74-.32,3.1,0,5.28.09,6.54.26,1.94.27,3.27.81,3.99,1.61.72.81,1.08,2.18,1.08,4.1v.99h-6.23c-.02-.59-.07-.99-.15-1.21-.07-.22-.23-.39-.45-.53-.28-.16-.77-.27-1.47-.32-.7-.05-2.18-.07-4.45-.07-2.73,0-4.4.08-4.99.25-.6.17-.9.64-.9,1.42s.3,1.19.9,1.36c.5.13,2.77.26,6.81.39,3.41.1,5.69.22,6.84.36,1.15.14,2.06.4,2.74.8.77.46,1.32,1.1,1.64,1.91.32.81.48,1.97.48,3.49,0,1.99-.27,3.47-.8,4.44-.41.71-.96,1.25-1.68,1.59-.72.35-1.73.59-3.02.71-1.39.12-3.98.19-7.78.19-3.17,0-5.52-.08-7.04-.25-1.51-.16-2.65-.46-3.42-.88-.79-.46-1.34-1.06-1.65-1.8-.3-.74-.45-1.87-.45-3.39l.02-.99h0Z"/>
  </g>
  <g id="Layer_5">
    <path class="cls-2" d="M323.68,100.12l-5.78,15.41-16.44.73,12.87,10.25-4.38,15.86,13.73-9.07,13.73,9.07-4.38-15.86,12.87-10.25-16.44-.73-5.78-15.41h0ZM244.42,73.32l8.06,21.51,22.95,1.02-17.96,14.31,6.12,22.14-19.17-12.66-19.17,12.66,6.12-22.14-17.96-14.31,22.95-1.02,8.06-21.51h0ZM165.16,100.12l5.78,15.41,16.44.73-12.87,10.25,4.38,15.86-13.73-9.07-13.73,9.07,4.38-15.86-12.87-10.25,16.44-.73,5.78-15.41Z"/>
  </g>
</svg>